<svg xmlns="http://www.w3.org/2000/svg" xmlns:xlink="http://www.w3.org/1999/xlink" width="559" zoomAndPan="magnify" viewBox="0 0 419.25 297.75" height="396" preserveAspectRatio="xMidYMid meet" version="1.0"><defs><clipPath id="ddd335ea2b"><path d="M 8.320312 6 L 410.351562 6 L 410.351562 291.175781 L 8.320312 291.175781 Z M 8.320312 6 " clip-rule="nonzero"/></clipPath></defs><path fill="#ffffff" d="M 390.671875 142.207031 C 390.835938 144.316406 390.921875 146.464844 390.933594 148.535156 C 390.921875 150.660156 390.835938 152.808594 390.679688 154.832031 C 390.578125 155.996094 390.453125 157.160156 390.304688 158.320312 C 390.296875 158.398438 390.289062 158.476562 390.28125 158.554688 C 390.167969 159.667969 390.03125 160.773438 389.875 161.878906 C 389.683594 162.996094 389.476562 164.101562 389.242188 165.207031 C 389.226562 165.289062 389.207031 165.367188 389.195312 165.449219 C 388.996094 166.535156 388.773438 167.613281 388.535156 168.683594 C 388.265625 169.726562 387.980469 170.757812 387.675781 171.78125 C 387.648438 171.871094 387.625 171.957031 387.601562 172.042969 C 387.3125 173.113281 386.996094 174.199219 386.660156 175.269531 C 386.316406 176.257812 385.949219 177.238281 385.566406 178.207031 C 385.535156 178.292969 385.503906 178.375 385.472656 178.460938 C 385.097656 179.496094 384.699219 180.53125 384.289062 181.527344 C 383.855469 182.492188 383.398438 183.453125 382.929688 184.394531 C 382.886719 184.480469 382.84375 184.566406 382.804688 184.652344 C 382.371094 185.585938 381.917969 186.507812 381.449219 187.414062 C 380.945312 188.320312 380.414062 189.21875 379.878906 190.089844 C 379.828125 190.164062 379.78125 190.246094 379.734375 190.324219 C 379.234375 191.191406 378.707031 192.058594 378.167969 192.898438 C 377.597656 193.726562 377.015625 194.53125 376.429688 195.300781 C 376.363281 195.390625 376.300781 195.476562 376.234375 195.566406 C 375.679688 196.351562 375.097656 197.140625 374.5 197.910156 C 373.867188 198.660156 373.214844 199.398438 372.550781 200.109375 C 372.480469 200.1875 372.40625 200.269531 372.335938 200.351562 C 371.714844 201.066406 371.078125 201.765625 370.4375 202.4375 C 369.195312 203.695312 367.894531 204.902344 366.570312 206.007812 C 364.375 207.851562 363.105469 210.574219 363.105469 213.441406 L 363.105469 234.917969 L 322.132812 234.917969 C 317.238281 234.917969 313.152344 238.546875 312.511719 243.324219 C 312.386719 243.65625 312.28125 243.996094 312.195312 244.34375 C 312.117188 244.65625 312 245.121094 311.871094 245.601562 L 311.652344 246.449219 C 311.636719 246.496094 311.625 246.542969 311.621094 246.554688 C 311.597656 246.636719 311.574219 246.722656 311.550781 246.808594 C 311.03125 248.800781 310.4375 250.949219 309.632812 253.171875 C 308.472656 256.359375 307.242188 258.609375 305.761719 260.242188 C 304.144531 262.027344 302.085938 263.238281 299.464844 263.949219 C 296.085938 264.871094 291.425781 265.046875 286.339844 264.441406 C 280.601562 263.757812 274.042969 262.054688 268.34375 260.511719 L 265.535156 259.746094 C 259.992188 258.234375 254.757812 256.804688 249.902344 255.921875 C 244.0625 254.867188 238.722656 254.597656 233.578125 255.117188 C 228.542969 255.621094 223.789062 256.867188 219.453125 258.828125 C 215.644531 260.550781 212.1875 262.769531 209.332031 265.320312 C 206.476562 262.769531 203.023438 260.546875 199.214844 258.828125 C 194.878906 256.871094 190.125 255.621094 185.089844 255.117188 C 183.394531 254.949219 181.679688 254.863281 179.933594 254.863281 C 176.375 254.863281 172.679688 255.214844 168.761719 255.925781 C 163.910156 256.804688 158.675781 258.234375 153.132812 259.746094 L 150.324219 260.511719 C 144.628906 262.054688 138.074219 263.757812 132.328125 264.441406 C 127.242188 265.046875 122.582031 264.871094 119.203125 263.953125 C 116.585938 263.238281 114.527344 262.027344 112.90625 260.238281 C 111.425781 258.605469 110.195312 256.359375 109.039062 253.171875 C 108.234375 250.953125 107.640625 248.800781 107.117188 246.804688 C 107.097656 246.730469 107.0625 246.59375 107.039062 246.519531 C 107.035156 246.511719 107.027344 246.480469 107.019531 246.449219 L 106.796875 245.605469 C 106.675781 245.128906 106.554688 244.667969 106.476562 244.351562 C 106.390625 244.003906 106.285156 243.660156 106.160156 243.320312 C 105.519531 238.546875 101.429688 234.917969 96.535156 234.917969 L 55.570312 234.917969 L 55.570312 213.4375 C 55.570312 210.570312 54.300781 207.851562 52.101562 206.007812 C 50.78125 204.898438 49.480469 203.695312 48.234375 202.429688 C 47.597656 201.765625 46.960938 201.0625 46.339844 200.347656 C 46.269531 200.265625 46.195312 200.1875 46.121094 200.105469 C 45.460938 199.398438 44.804688 198.65625 44.175781 197.90625 C 43.578125 197.136719 42.996094 196.351562 42.4375 195.566406 C 42.375 195.472656 42.3125 195.386719 42.246094 195.300781 C 41.660156 194.53125 41.078125 193.722656 40.507812 192.894531 C 39.96875 192.054688 39.441406 191.1875 38.9375 190.320312 C 38.890625 190.242188 38.84375 190.160156 38.796875 190.082031 C 38.261719 189.21875 37.734375 188.324219 37.222656 187.410156 C 36.753906 186.503906 36.304688 185.582031 35.871094 184.648438 C 35.828125 184.5625 35.789062 184.476562 35.746094 184.390625 C 35.273438 183.449219 34.820312 182.484375 34.386719 181.523438 C 33.976562 180.523438 33.578125 179.496094 33.203125 178.457031 C 33.171875 178.375 33.140625 178.289062 33.105469 178.203125 C 32.722656 177.234375 32.359375 176.253906 32.011719 175.265625 C 31.675781 174.195312 31.363281 173.109375 31.074219 172.042969 C 31.050781 171.953125 31.027344 171.867188 31 171.78125 C 30.695312 170.757812 30.40625 169.726562 30.140625 168.683594 C 29.898438 167.613281 29.679688 166.535156 29.480469 165.449219 C 29.464844 165.367188 29.449219 165.285156 29.433594 165.203125 C 29.199219 164.101562 28.988281 162.992188 28.800781 161.878906 C 28.644531 160.773438 28.507812 159.664062 28.394531 158.550781 C 28.386719 158.472656 28.378906 158.394531 28.367188 158.3125 C 28.222656 157.15625 28.097656 155.992188 28.003906 154.917969 C 27.839844 152.804688 27.753906 150.65625 27.742188 148.589844 C 27.753906 146.464844 27.839844 144.316406 27.996094 142.292969 C 28.097656 141.128906 28.222656 139.96875 28.367188 138.808594 C 28.378906 138.730469 28.386719 138.648438 28.398438 138.570312 C 28.511719 137.457031 28.644531 136.347656 28.800781 135.246094 C 28.992188 134.128906 29.199219 133.019531 29.433594 131.917969 C 29.449219 131.835938 29.46875 131.753906 29.480469 131.671875 C 29.679688 130.589844 29.902344 129.507812 30.140625 128.4375 C 30.410156 127.394531 30.695312 126.363281 31.003906 125.339844 C 31.027344 125.253906 31.050781 125.167969 31.074219 125.082031 C 31.363281 124.003906 31.679688 122.921875 32.011719 121.855469 C 32.359375 120.867188 32.722656 119.886719 33.105469 118.914062 C 33.140625 118.832031 33.171875 118.746094 33.203125 118.664062 C 33.578125 117.625 33.976562 116.59375 34.386719 115.597656 C 34.820312 114.636719 35.273438 113.667969 35.746094 112.726562 C 35.789062 112.644531 35.828125 112.558594 35.871094 112.472656 C 36.304688 111.539062 36.757812 110.617188 37.222656 109.710938 C 37.734375 108.796875 38.261719 107.898438 38.796875 107.039062 C 38.84375 106.960938 38.890625 106.878906 38.9375 106.796875 C 39.441406 105.929688 39.96875 105.066406 40.507812 104.222656 C 41.078125 103.398438 41.660156 102.589844 42.246094 101.820312 C 42.3125 101.734375 42.375 101.644531 42.4375 101.554688 C 42.996094 100.769531 43.578125 99.984375 44.175781 99.214844 C 44.804688 98.464844 45.460938 97.726562 46.121094 97.011719 C 46.195312 96.933594 46.269531 96.851562 46.339844 96.769531 C 46.960938 96.058594 47.597656 95.359375 48.234375 94.6875 C 49.480469 93.425781 50.78125 92.222656 52.101562 91.113281 C 54.300781 89.269531 55.570312 86.550781 55.570312 83.683594 L 55.570312 62.203125 L 96.539062 62.203125 C 101.433594 62.203125 105.523438 58.574219 106.164062 53.800781 C 106.289062 53.464844 106.390625 53.125 106.476562 52.78125 C 106.554688 52.464844 106.675781 52 106.804688 51.519531 L 107.027344 50.660156 C 107.035156 50.632812 107.042969 50.605469 107.042969 50.597656 C 107.070312 50.503906 107.097656 50.410156 107.121094 50.316406 C 107.644531 48.324219 108.234375 46.171875 109.042969 43.953125 C 110.199219 40.761719 111.429688 38.515625 112.910156 36.882812 C 114.527344 35.101562 116.585938 33.886719 119.207031 33.171875 C 122.589844 32.253906 127.25 32.082031 132.328125 32.683594 C 138.078125 33.367188 144.632812 35.070312 150.328125 36.613281 L 153.128906 37.375 C 158.675781 38.890625 163.914062 40.320312 168.765625 41.199219 C 174.605469 42.257812 179.949219 42.523438 185.09375 42.007812 C 190.128906 41.503906 194.882812 40.257812 199.222656 38.296875 C 203.027344 36.574219 206.484375 34.355469 209.335938 31.804688 C 212.191406 34.355469 215.648438 36.578125 219.453125 38.296875 C 223.789062 40.253906 228.542969 41.5 233.578125 42.007812 C 238.726562 42.523438 244.066406 42.257812 249.90625 41.199219 C 254.761719 40.320312 260 38.890625 265.542969 37.375 L 268.347656 36.613281 C 274.042969 35.070312 280.59375 33.367188 286.34375 32.683594 C 291.425781 32.078125 296.085938 32.253906 299.464844 33.171875 C 302.085938 33.886719 304.144531 35.101562 305.761719 36.882812 C 307.246094 38.515625 308.476562 40.761719 309.632812 43.949219 C 310.441406 46.171875 311.03125 48.324219 311.554688 50.316406 C 311.578125 50.410156 311.605469 50.515625 311.632812 50.609375 C 311.636719 50.617188 311.644531 50.644531 311.652344 50.675781 L 311.871094 51.523438 C 312 52.003906 312.117188 52.464844 312.195312 52.78125 C 312.285156 53.125 312.386719 53.46875 312.511719 53.804688 C 313.152344 58.578125 317.238281 62.207031 322.132812 62.207031 L 363.105469 62.207031 L 363.105469 83.683594 C 363.105469 86.550781 364.375 89.273438 366.570312 91.117188 C 367.894531 92.222656 369.191406 93.425781 370.4375 94.6875 C 371.078125 95.359375 371.714844 96.058594 372.335938 96.773438 C 372.40625 96.855469 372.480469 96.933594 372.550781 97.015625 C 373.214844 97.726562 373.867188 98.464844 374.5 99.214844 C 375.097656 99.984375 375.679688 100.769531 376.234375 101.558594 C 376.300781 101.648438 376.363281 101.734375 376.429688 101.820312 C 377.015625 102.589844 377.597656 103.398438 378.167969 104.226562 C 378.707031 105.066406 379.234375 105.933594 379.734375 106.800781 C 379.78125 106.878906 379.828125 106.957031 379.878906 107.035156 C 380.414062 107.90625 380.945312 108.804688 381.449219 109.710938 C 381.921875 110.617188 382.371094 111.539062 382.804688 112.472656 C 382.84375 112.558594 382.886719 112.644531 382.929688 112.726562 C 383.398438 113.667969 383.855469 114.632812 384.289062 115.597656 C 384.699219 116.59375 385.097656 117.625 385.472656 118.664062 C 385.503906 118.746094 385.535156 118.832031 385.566406 118.917969 C 385.949219 119.886719 386.316406 120.867188 386.660156 121.855469 C 386.996094 122.921875 387.3125 124.003906 387.601562 125.085938 C 387.625 125.167969 387.648438 125.257812 387.675781 125.339844 C 387.980469 126.363281 388.265625 127.398438 388.535156 128.441406 C 388.773438 129.511719 388.996094 130.589844 389.195312 131.675781 C 389.207031 131.757812 389.226562 131.835938 389.242188 131.917969 C 389.476562 133.023438 389.683594 134.128906 389.875 135.246094 C 390.03125 136.351562 390.167969 137.457031 390.28125 138.570312 C 390.289062 138.648438 390.296875 138.726562 390.304688 138.808594 C 390.453125 139.964844 390.578125 141.128906 390.671875 142.203125 Z M 390.671875 142.207031 " fill-opacity="1" fill-rule="nonzero"/><path fill="#b8b8b8" d="M 209.335938 270.203125 L 206.910156 268.03125 C 204.339844 265.734375 201.160156 263.699219 197.71875 262.144531 C 193.742188 260.347656 189.371094 259.203125 184.730469 258.738281 C 179.890625 258.253906 174.933594 258.503906 169.417969 259.507812 C 164.703125 260.359375 159.550781 261.769531 154.097656 263.257812 L 151.285156 264.023438 C 145.464844 265.601562 138.753906 267.34375 132.761719 268.054688 C 127.222656 268.710938 122.070312 268.503906 118.25 267.464844 C 114.941406 266.5625 112.308594 265 110.210938 262.683594 C 108.402344 260.6875 106.945312 258.058594 105.621094 254.414062 C 104.761719 252.050781 104.140625 249.804688 103.597656 247.722656 L 103.207031 246.25 C 103.105469 245.855469 103.007812 245.488281 102.945312 245.222656 C 102.890625 245.003906 102.824219 244.789062 102.746094 244.578125 L 102.609375 244.203125 L 102.554688 243.804688 C 102.152344 240.8125 99.566406 238.554688 96.539062 238.554688 L 51.925781 238.554688 L 51.925781 213.4375 C 51.925781 211.644531 51.136719 209.949219 49.761719 208.792969 C 48.347656 207.609375 46.960938 206.328125 45.640625 204.984375 C 44.925781 204.238281 44.246094 203.496094 43.589844 202.738281 L 43.449219 202.582031 C 42.753906 201.835938 42.058594 201.046875 41.386719 200.253906 L 41.300781 200.144531 C 40.667969 199.332031 40.050781 198.5 39.464844 197.671875 L 39.355469 197.519531 C 38.726562 196.691406 38.109375 195.835938 37.507812 194.964844 L 37.4375 194.859375 C 36.871094 193.976562 36.316406 193.0625 35.789062 192.152344 L 35.6875 191.984375 C 35.136719 191.09375 34.582031 190.148438 34.042969 189.191406 C 33.496094 188.132812 33.023438 187.164062 32.566406 186.183594 L 32.488281 186.023438 C 31.992188 185.035156 31.515625 184.023438 31.0625 183.015625 C 30.589844 181.867188 30.171875 180.789062 29.777344 179.703125 L 29.710938 179.523438 C 29.316406 178.53125 28.9375 177.503906 28.574219 176.46875 C 28.1875 175.242188 27.855469 174.109375 27.554688 172.988281 L 27.503906 172.8125 C 27.1875 171.757812 26.890625 170.679688 26.609375 169.589844 C 26.335938 168.367188 26.105469 167.242188 25.898438 166.113281 L 25.867188 165.957031 C 25.625 164.808594 25.40625 163.652344 25.207031 162.488281 C 25.03125 161.242188 24.890625 160.085938 24.769531 158.929688 L 24.753906 158.777344 C 24.601562 157.574219 24.472656 156.363281 24.375 155.238281 C 24.203125 153.007812 24.109375 150.789062 24.101562 148.613281 C 24.109375 146.367188 24.199219 144.160156 24.363281 142.019531 C 24.472656 140.773438 24.601562 139.5625 24.753906 138.355469 L 24.773438 138.203125 C 24.890625 137.046875 25.03125 135.890625 25.195312 134.738281 C 25.410156 133.480469 25.625 132.324219 25.871094 131.171875 L 25.898438 131.027344 C 26.109375 129.890625 26.335938 128.765625 26.589844 127.648438 C 26.890625 126.453125 27.191406 125.375 27.511719 124.300781 L 27.558594 124.136719 C 27.859375 123.019531 28.191406 121.882812 28.539062 120.773438 C 28.9375 119.625 29.320312 118.601562 29.71875 117.585938 L 29.78125 117.417969 C 30.171875 116.34375 30.589844 115.265625 31.019531 114.222656 C 31.515625 113.105469 31.996094 112.09375 32.488281 111.105469 L 32.566406 110.945312 C 33.023438 109.964844 33.496094 109 33.988281 108.046875 C 34.582031 106.980469 35.140625 106.035156 35.699219 105.128906 L 35.789062 104.976562 C 36.316406 104.066406 36.871094 103.15625 37.4375 102.269531 L 37.507812 102.164062 C 38.109375 101.292969 38.726562 100.441406 39.34375 99.628906 L 39.460938 99.464844 C 40.054688 98.628906 40.671875 97.796875 41.300781 96.984375 L 41.390625 96.878906 C 42.058594 96.082031 42.753906 95.296875 43.457031 94.542969 L 43.59375 94.390625 C 44.25 93.636719 44.925781 92.890625 45.605469 92.183594 C 46.964844 90.800781 48.351562 89.519531 49.761719 88.335938 C 51.140625 87.179688 51.929688 85.484375 51.929688 83.691406 L 51.929688 58.570312 L 96.542969 58.570312 C 99.570312 58.570312 102.15625 56.316406 102.558594 53.324219 L 102.613281 52.925781 L 102.75 52.546875 C 102.828125 52.339844 102.894531 52.125 102.945312 51.90625 C 103.023438 51.597656 103.144531 51.136719 103.269531 50.65625 L 103.605469 49.386719 C 104.144531 47.324219 104.765625 45.074219 105.621094 42.714844 C 106.949219 39.0625 108.410156 36.4375 110.214844 34.441406 C 112.316406 32.128906 114.945312 30.566406 118.253906 29.664062 C 122.074219 28.625 127.226562 28.414062 132.761719 29.074219 C 138.765625 29.789062 145.46875 31.527344 151.285156 33.101562 L 154.09375 33.867188 C 159.554688 35.359375 164.714844 36.769531 169.421875 37.621094 C 174.929688 38.621094 179.9375 38.871094 184.730469 38.390625 C 189.375 37.925781 193.746094 36.777344 197.722656 34.984375 C 201.164062 33.429688 204.34375 31.390625 206.914062 29.09375 L 209.339844 26.925781 L 211.769531 29.09375 C 214.339844 31.390625 217.519531 33.425781 220.957031 34.984375 C 224.929688 36.777344 229.304688 37.925781 233.945312 38.386719 C 238.75 38.871094 243.757812 38.617188 249.257812 37.621094 C 253.972656 36.765625 259.128906 35.359375 264.585938 33.867188 L 267.394531 33.101562 C 273.210938 31.527344 279.914062 29.789062 285.917969 29.074219 C 291.449219 28.410156 296.601562 28.621094 300.425781 29.664062 C 303.738281 30.5625 306.367188 32.125 308.464844 34.4375 C 310.273438 36.433594 311.734375 39.0625 313.058594 42.710938 C 313.914062 45.066406 314.535156 47.320312 315.078125 49.398438 L 315.398438 50.609375 C 315.539062 51.136719 315.65625 51.597656 315.734375 51.914062 C 315.789062 52.125 315.851562 52.339844 315.929688 52.550781 L 316.070312 52.925781 L 316.121094 53.320312 C 316.523438 56.3125 319.109375 58.570312 322.136719 58.570312 L 366.75 58.570312 L 366.75 83.6875 C 366.75 85.484375 367.542969 87.175781 368.917969 88.332031 C 370.320312 89.511719 371.707031 90.789062 373.03125 92.136719 C 373.753906 92.886719 374.429688 93.632812 375.089844 94.390625 L 375.226562 94.546875 C 375.921875 95.292969 376.617188 96.078125 377.289062 96.875 L 377.375 96.984375 C 378.007812 97.796875 378.625 98.625 379.210938 99.457031 L 379.320312 99.609375 C 379.949219 100.4375 380.566406 101.289062 381.167969 102.160156 L 381.238281 102.265625 C 381.804688 103.152344 382.359375 104.0625 382.890625 104.976562 L 382.972656 105.117188 C 383.542969 106.039062 384.101562 106.984375 384.632812 107.933594 C 385.179688 108.992188 385.65625 109.960938 386.109375 110.941406 L 386.1875 111.101562 C 386.679688 112.085938 387.160156 113.097656 387.613281 114.109375 C 388.089844 115.257812 388.503906 116.339844 388.898438 117.421875 L 388.964844 117.601562 C 389.359375 118.59375 389.738281 119.617188 390.101562 120.652344 C 390.488281 121.875 390.816406 123.011719 391.121094 124.136719 L 391.164062 124.296875 C 391.484375 125.367188 391.785156 126.445312 392.0625 127.535156 C 392.339844 128.757812 392.570312 129.882812 392.777344 131.011719 L 392.808594 131.167969 C 393.050781 132.316406 393.269531 133.472656 393.464844 134.636719 C 393.644531 135.882812 393.785156 137.039062 393.902344 138.199219 L 393.921875 138.347656 C 394.074219 139.554688 394.203125 140.765625 394.300781 141.886719 C 394.472656 144.121094 394.5625 146.335938 394.574219 148.515625 C 394.5625 150.757812 394.476562 152.964844 394.308594 155.109375 C 394.203125 156.355469 394.070312 157.570312 393.917969 158.777344 L 393.902344 158.933594 C 393.78125 160.082031 393.640625 161.234375 393.480469 162.386719 C 393.269531 163.644531 393.046875 164.800781 392.804688 165.953125 L 392.777344 166.097656 C 392.566406 167.234375 392.335938 168.363281 392.085938 169.480469 C 391.78125 170.675781 391.484375 171.753906 391.160156 172.824219 L 391.113281 173.003906 C 390.816406 174.101562 390.484375 175.234375 390.136719 176.355469 C 389.734375 177.5 389.355469 178.527344 388.953125 179.539062 L 388.890625 179.707031 C 388.5 180.78125 388.085938 181.863281 387.65625 182.90625 C 387.15625 184.023438 386.675781 185.035156 386.183594 186.019531 L 386.105469 186.183594 C 385.648438 187.160156 385.175781 188.128906 384.683594 189.082031 C 384.097656 190.136719 383.539062 191.082031 382.972656 191.996094 L 382.882812 192.152344 C 382.355469 193.058594 381.800781 193.96875 381.234375 194.855469 L 381.164062 194.960938 C 380.5625 195.832031 379.945312 196.683594 379.328125 197.496094 L 379.210938 197.660156 C 378.621094 198.496094 378.003906 199.328125 377.371094 200.140625 L 377.285156 200.25 C 376.613281 201.046875 375.917969 201.832031 375.214844 202.585938 L 375.078125 202.734375 C 374.425781 203.488281 373.746094 204.234375 373.070312 204.945312 C 371.703125 206.332031 370.316406 207.613281 368.910156 208.789062 C 367.535156 209.949219 366.746094 211.640625 366.746094 213.4375 L 366.746094 238.550781 L 322.128906 238.550781 C 319.105469 238.550781 316.519531 240.808594 316.117188 243.800781 L 316.0625 244.199219 L 315.921875 244.578125 C 315.84375 244.785156 315.78125 245 315.726562 245.214844 C 315.648438 245.527344 315.53125 245.984375 315.40625 246.464844 L 315.070312 247.734375 C 314.527344 249.804688 313.90625 252.054688 313.050781 254.410156 C 311.726562 258.058594 310.265625 260.691406 308.457031 262.683594 C 306.359375 264.996094 303.730469 266.558594 300.417969 267.460938 C 296.59375 268.503906 291.445312 268.714844 285.90625 268.050781 C 279.929688 267.34375 273.214844 265.601562 267.386719 264.023438 L 264.574219 263.257812 C 259.085938 261.757812 253.9375 260.351562 249.246094 259.5 C 243.734375 258.503906 238.726562 258.257812 233.941406 258.734375 C 229.296875 259.199219 224.925781 260.34375 220.949219 262.140625 C 217.507812 263.695312 214.328125 265.730469 211.757812 268.03125 L 209.332031 270.199219 Z M 238.746094 251.222656 C 242.511719 251.222656 246.417969 251.59375 250.554688 252.34375 C 255.558594 253.25 260.855469 254.699219 266.464844 256.230469 L 269.308594 257.003906 C 274.878906 258.511719 281.285156 260.175781 286.773438 260.828125 C 291.339844 261.371094 295.617188 261.230469 298.511719 260.441406 C 300.46875 259.910156 301.914062 259.070312 303.066406 257.800781 C 304.21875 256.527344 305.21875 254.664062 306.210938 251.933594 C 306.964844 249.855469 307.53125 247.800781 308.03125 245.890625 L 308.351562 244.6875 C 308.480469 244.1875 308.589844 243.765625 308.664062 243.476562 C 308.75 243.125 308.851562 242.78125 308.964844 242.445312 C 310.019531 236.050781 315.613281 231.28125 322.136719 231.28125 L 359.46875 231.28125 L 359.46875 213.441406 C 359.46875 209.492188 361.203125 205.765625 364.230469 203.222656 C 365.460938 202.1875 366.679688 201.066406 367.84375 199.882812 C 368.40625 199.292969 369.003906 198.640625 369.585938 197.96875 C 369.683594 197.855469 369.78125 197.746094 369.878906 197.640625 C 370.492188 196.980469 371.089844 196.304688 371.667969 195.621094 C 372.21875 194.914062 372.753906 194.1875 373.265625 193.46875 C 373.351562 193.34375 373.445312 193.214844 373.542969 193.089844 C 374.070312 192.390625 374.609375 191.648438 375.136719 190.886719 C 375.632812 190.105469 376.121094 189.300781 376.585938 188.5 L 376.785156 188.167969 C 377.289062 187.351562 377.792969 186.496094 378.273438 185.640625 C 378.664062 184.882812 379.09375 184.007812 379.503906 183.117188 L 379.671875 182.769531 C 380.121094 181.875 380.554688 180.957031 380.96875 180.039062 C 381.3125 179.195312 381.691406 178.210938 382.050781 177.222656 L 382.175781 176.894531 C 382.546875 175.949219 382.894531 175.011719 383.226562 174.070312 C 383.507812 173.160156 383.808594 172.125 384.085938 171.101562 L 384.183594 170.757812 C 384.480469 169.765625 384.753906 168.777344 385.007812 167.785156 C 385.214844 166.863281 385.421875 165.832031 385.613281 164.796875 L 385.679688 164.460938 C 385.902344 163.402344 386.105469 162.34375 386.285156 161.273438 C 386.421875 160.3125 386.550781 159.25 386.660156 158.1875 L 386.691406 157.882812 C 386.835938 156.753906 386.957031 155.636719 387.054688 154.519531 C 387.199219 152.613281 387.285156 150.527344 387.292969 148.519531 C 387.285156 146.554688 387.199219 144.511719 387.042969 142.488281 C 386.957031 141.492188 386.835938 140.378906 386.695312 139.269531 L 386.660156 138.953125 C 386.550781 137.878906 386.421875 136.816406 386.273438 135.757812 C 386.105469 134.785156 385.902344 133.726562 385.683594 132.671875 L 385.613281 132.324219 C 385.425781 131.296875 385.214844 130.265625 384.984375 129.242188 C 384.753906 128.351562 384.484375 127.367188 384.191406 126.390625 L 384.089844 126.039062 C 383.8125 125 383.511719 123.964844 383.191406 122.949219 C 382.898438 122.117188 382.550781 121.179688 382.183594 120.253906 L 382.058594 119.917969 C 381.695312 118.917969 381.316406 117.933594 380.925781 116.980469 C 380.5625 116.171875 380.125 115.253906 379.679688 114.359375 L 379.511719 114.011719 C 379.097656 113.121094 378.667969 112.246094 378.222656 111.382812 C 377.796875 110.628906 377.296875 109.777344 376.785156 108.953125 L 376.59375 108.632812 C 376.125 107.824219 375.636719 107.019531 375.140625 106.238281 C 374.613281 105.480469 374.074219 104.734375 373.535156 104.023438 C 373.449219 103.914062 373.355469 103.785156 373.261719 103.652344 C 372.757812 102.9375 372.21875 102.210938 371.671875 101.507812 C 371.09375 100.820312 370.496094 100.144531 369.890625 99.492188 C 369.785156 99.378906 369.6875 99.273438 369.59375 99.160156 C 369.007812 98.488281 368.40625 97.832031 367.808594 97.203125 C 366.683594 96.0625 365.464844 94.9375 364.234375 93.902344 C 361.207031 91.359375 359.46875 87.636719 359.46875 83.6875 L 359.46875 65.847656 L 322.140625 65.847656 C 315.613281 65.847656 310.019531 61.074219 308.964844 54.683594 C 308.851562 54.347656 308.75 54.003906 308.667969 53.660156 C 308.59375 53.359375 308.480469 52.941406 308.367188 52.5 L 308.035156 51.253906 C 307.53125 49.328125 306.96875 47.273438 306.210938 45.195312 C 305.21875 42.460938 304.222656 40.601562 303.070312 39.328125 C 301.917969 38.058594 300.46875 37.21875 298.511719 36.6875 C 295.613281 35.894531 291.335938 35.757812 286.78125 36.300781 C 281.261719 36.957031 274.867188 38.621094 269.304688 40.128906 L 266.503906 40.886719 C 260.890625 42.421875 255.585938 43.871094 250.558594 44.78125 C 244.378906 45.902344 238.710938 46.179688 233.21875 45.628906 C 227.789062 45.085938 222.652344 43.734375 217.957031 41.613281 C 214.863281 40.21875 211.929688 38.480469 209.339844 36.515625 C 206.75 38.480469 203.820312 40.214844 200.722656 41.613281 C 196.023438 43.738281 190.886719 45.089844 185.457031 45.628906 C 179.984375 46.179688 174.308594 45.902344 168.121094 44.78125 C 163.097656 43.871094 157.792969 42.421875 152.175781 40.886719 L 149.375 40.128906 C 143.8125 38.621094 137.414062 36.957031 131.902344 36.304688 C 127.339844 35.757812 123.0625 35.898438 120.164062 36.6875 C 118.210938 37.21875 116.761719 38.058594 115.609375 39.332031 C 114.457031 40.601562 113.457031 42.464844 112.464844 45.199219 C 111.710938 47.28125 111.144531 49.332031 110.648438 51.242188 L 110.328125 52.445312 C 110.199219 52.941406 110.085938 53.363281 110.015625 53.652344 C 109.929688 54.003906 109.828125 54.347656 109.714844 54.6875 C 108.660156 61.078125 103.066406 65.847656 96.542969 65.847656 L 59.210938 65.847656 L 59.210938 83.6875 C 59.210938 87.640625 57.472656 91.363281 54.445312 93.90625 C 53.207031 94.945312 51.992188 96.066406 50.828125 97.25 C 50.269531 97.835938 49.667969 98.492188 49.089844 99.164062 C 48.992188 99.273438 48.894531 99.382812 48.792969 99.492188 C 48.183594 100.148438 47.585938 100.824219 47.007812 101.511719 C 46.457031 102.214844 45.921875 102.941406 45.410156 103.664062 C 45.324219 103.789062 45.230469 103.917969 45.132812 104.042969 C 44.605469 104.738281 44.066406 105.480469 43.539062 106.242188 C 43.042969 107.023438 42.554688 107.828125 42.085938 108.628906 L 41.898438 108.941406 C 41.386719 109.773438 40.882812 110.625 40.402344 111.488281 C 40.011719 112.246094 39.582031 113.121094 39.171875 114.011719 L 39 114.359375 C 38.554688 115.257812 38.117188 116.175781 37.707031 117.089844 C 37.363281 117.9375 36.984375 118.921875 36.625 119.910156 L 36.5 120.234375 C 36.128906 121.183594 35.777344 122.117188 35.449219 123.0625 C 35.167969 123.964844 34.867188 125.003906 34.589844 126.03125 L 34.488281 126.386719 C 34.199219 127.363281 33.921875 128.351562 33.667969 129.34375 C 33.460938 130.265625 33.253906 131.296875 33.0625 132.335938 L 32.996094 132.671875 C 32.773438 133.730469 32.570312 134.789062 32.390625 135.859375 C 32.257812 136.820312 32.128906 137.878906 32.019531 138.945312 L 31.976562 139.300781 C 31.839844 140.386719 31.722656 141.496094 31.625 142.613281 C 31.476562 144.519531 31.394531 146.605469 31.386719 148.609375 C 31.394531 150.578125 31.480469 152.621094 31.632812 154.640625 C 31.722656 155.636719 31.839844 156.75 31.980469 157.859375 L 32.015625 158.179688 C 32.125 159.253906 32.253906 160.3125 32.40625 161.371094 C 32.570312 162.34375 32.773438 163.402344 32.996094 164.460938 L 33.0625 164.804688 C 33.25 165.835938 33.460938 166.867188 33.691406 167.890625 C 33.921875 168.78125 34.195312 169.765625 34.488281 170.742188 L 34.585938 171.085938 C 34.863281 172.125 35.167969 173.160156 35.484375 174.179688 C 35.777344 175.015625 36.125 175.953125 36.492188 176.875 L 36.617188 177.210938 C 36.980469 178.210938 37.359375 179.195312 37.75 180.144531 C 38.117188 180.957031 38.554688 181.875 39 182.769531 L 39.167969 183.117188 C 39.582031 184.007812 40.011719 184.882812 40.457031 185.746094 C 40.882812 186.507812 41.386719 187.355469 41.890625 188.171875 L 42.085938 188.5 C 42.554688 189.304688 43.042969 190.109375 43.539062 190.890625 C 44.066406 191.652344 44.605469 192.398438 45.144531 193.109375 C 45.230469 193.21875 45.324219 193.347656 45.417969 193.476562 C 45.921875 194.195312 46.457031 194.917969 47.007812 195.625 C 47.585938 196.308594 48.183594 196.984375 48.789062 197.636719 C 48.894531 197.75 48.992188 197.859375 49.085938 197.96875 C 49.667969 198.640625 50.269531 199.296875 50.867188 199.925781 C 51.992188 201.066406 53.207031 202.1875 54.445312 203.226562 C 57.472656 205.769531 59.210938 209.492188 59.210938 213.445312 L 59.210938 231.28125 L 96.539062 231.28125 C 103.0625 231.28125 108.65625 236.054688 109.714844 242.445312 C 109.828125 242.789062 109.929688 243.140625 110.015625 243.488281 C 110.074219 243.726562 110.160156 244.058594 110.253906 244.417969 L 110.644531 245.886719 C 111.144531 247.800781 111.707031 249.855469 112.464844 251.9375 C 113.457031 254.664062 114.457031 256.527344 115.609375 257.800781 C 116.761719 259.070312 118.207031 259.910156 120.167969 260.445312 C 123.0625 261.234375 127.339844 261.375 131.902344 260.828125 C 137.40625 260.175781 143.804688 258.511719 149.375 257.003906 L 152.179688 256.238281 C 157.789062 254.707031 163.089844 253.257812 168.117188 252.34375 C 174.308594 251.222656 179.9375 250.949219 185.453125 251.5 C 190.882812 252.039062 196.019531 253.390625 200.71875 255.511719 C 203.816406 256.914062 206.746094 258.648438 209.335938 260.613281 C 211.929688 258.648438 214.859375 256.914062 217.953125 255.511719 C 222.65625 253.390625 227.789062 252.039062 233.21875 251.5 C 235.035156 251.316406 236.875 251.222656 238.746094 251.222656 Z M 238.746094 251.222656 " fill-opacity="1" fill-rule="nonzero"/><g clip-path="url(#ddd335ea2b)"><path fill="#d60000" d="M 209.3125 291.085938 C 205.582031 291.085938 202.191406 288.949219 200.574219 285.613281 C 200.382812 285.296875 200.21875 285.007812 200.085938 284.761719 C 199.496094 283.703125 198.496094 281.914062 197.082031 280.449219 C 195.675781 278.996094 193.539062 277.5625 191.21875 276.515625 C 188.773438 275.410156 186.136719 274.726562 183.164062 274.429688 C 179.839844 274.097656 176.265625 274.292969 172.230469 275.023438 C 168.214844 275.75 163.378906 277.074219 158.257812 278.472656 L 155.40625 279.246094 C 149.046875 280.96875 141.675781 282.875 134.621094 283.714844 C 127.007812 284.621094 119.914062 284.257812 114.101562 282.679688 C 107.886719 280.984375 102.640625 277.820312 98.515625 273.273438 C 95.289062 269.710938 92.832031 265.429688 90.785156 259.796875 C 90.085938 257.867188 89.515625 256.023438 89.035156 254.328125 L 52.027344 254.328125 C 43.121094 254.328125 36.144531 246.472656 36.144531 236.441406 L 36.144531 217.769531 C 35.535156 217.1875 34.929688 216.59375 34.335938 215.992188 L 34.246094 215.898438 C 33.414062 215.03125 32.585938 214.121094 31.78125 213.203125 C 30.894531 212.242188 30.015625 211.246094 29.171875 210.238281 C 29.101562 210.152344 29.03125 210.066406 28.964844 209.980469 C 28.179688 208.972656 27.40625 207.9375 26.667969 206.898438 C 25.90625 205.886719 25.144531 204.832031 24.410156 203.761719 C 24.351562 203.675781 24.292969 203.59375 24.242188 203.511719 C 23.542969 202.421875 22.855469 201.300781 22.203125 200.171875 C 21.511719 199.058594 20.835938 197.898438 20.183594 196.726562 C 20.136719 196.644531 20.09375 196.558594 20.046875 196.476562 C 19.449219 195.320312 18.863281 194.132812 18.3125 192.949219 C 17.714844 191.75 17.136719 190.523438 16.589844 189.300781 C 16.554688 189.21875 16.519531 189.136719 16.484375 189.050781 C 15.964844 187.796875 15.464844 186.5 14.988281 185.195312 C 14.511719 183.980469 14.050781 182.738281 13.621094 181.503906 C 13.589844 181.414062 13.558594 181.324219 13.53125 181.238281 C 13.113281 179.90625 12.714844 178.550781 12.351562 177.207031 C 11.976562 175.941406 11.617188 174.644531 11.289062 173.347656 C 11.265625 173.261719 11.246094 173.175781 11.226562 173.089844 C 10.925781 171.769531 10.652344 170.421875 10.402344 169.078125 C 10.121094 167.730469 9.859375 166.347656 9.628906 164.972656 C 9.613281 164.894531 9.601562 164.816406 9.589844 164.734375 C 9.398438 163.378906 9.226562 162.003906 9.089844 160.648438 C 8.914062 159.28125 8.765625 157.886719 8.648438 156.5 C 8.441406 153.832031 8.332031 151.210938 8.320312 148.617188 C 8.332031 145.90625 8.441406 143.285156 8.640625 140.707031 C 8.765625 139.230469 8.914062 137.835938 9.089844 136.472656 C 9.226562 135.113281 9.398438 133.742188 9.589844 132.382812 C 9.601562 132.304688 9.617188 132.222656 9.628906 132.144531 C 9.859375 130.769531 10.117188 129.390625 10.402344 128.039062 C 10.652344 126.699219 10.929688 125.351562 11.226562 124.027344 C 11.246094 123.941406 11.265625 123.855469 11.289062 123.773438 C 11.617188 122.472656 11.976562 121.175781 12.351562 119.910156 C 12.71875 118.5625 13.113281 117.207031 13.53125 115.882812 C 13.5625 115.792969 13.589844 115.703125 13.621094 115.617188 C 14.050781 114.378906 14.511719 113.136719 14.988281 111.921875 C 15.464844 110.621094 15.964844 109.324219 16.484375 108.066406 C 16.519531 107.984375 16.554688 107.902344 16.589844 107.816406 C 17.136719 106.59375 17.714844 105.367188 18.3125 104.167969 C 18.863281 102.984375 19.449219 101.800781 20.046875 100.644531 C 20.09375 100.558594 20.136719 100.472656 20.183594 100.390625 C 20.835938 99.21875 21.515625 98.0625 22.203125 96.945312 C 22.855469 95.820312 23.542969 94.699219 24.242188 93.609375 C 24.292969 93.523438 24.351562 93.441406 24.410156 93.359375 C 25.144531 92.285156 25.90625 91.230469 26.667969 90.21875 C 27.40625 89.183594 28.175781 88.144531 28.964844 87.136719 C 29.035156 87.050781 29.101562 86.964844 29.171875 86.882812 C 30.015625 85.875 30.894531 84.878906 31.78125 83.917969 C 32.585938 82.996094 33.414062 82.085938 34.246094 81.21875 L 34.335938 81.128906 C 34.929688 80.523438 35.53125 79.929688 36.144531 79.347656 L 36.144531 60.675781 C 36.144531 50.648438 43.121094 42.792969 52.027344 42.792969 L 89.039062 42.792969 C 89.515625 41.097656 90.085938 39.253906 90.785156 37.324219 C 92.832031 31.6875 95.289062 27.40625 98.515625 23.84375 C 102.644531 19.296875 107.886719 16.132812 114.101562 14.4375 C 119.921875 12.859375 127.015625 12.5 134.621094 13.402344 C 141.675781 14.242188 149.050781 16.148438 155.40625 17.871094 L 158.25 18.644531 C 163.375 20.042969 168.214844 21.367188 172.234375 22.09375 C 176.265625 22.824219 179.839844 23.019531 183.160156 22.6875 C 186.136719 22.390625 188.773438 21.707031 191.21875 20.601562 C 193.539062 19.554688 195.671875 18.121094 197.078125 16.671875 C 198.496094 15.207031 199.492188 13.417969 200.085938 12.347656 C 200.226562 12.097656 200.390625 11.804688 200.589844 11.476562 C 201.777344 9.0625 203.902344 7.277344 206.410156 6.492188 C 207.316406 6.203125 208.273438 6.042969 209.257812 6.03125 L 209.359375 6.03125 C 213.089844 6.03125 216.476562 8.167969 218.09375 11.496094 C 218.289062 11.820312 218.453125 12.109375 218.585938 12.355469 C 219.179688 13.417969 220.175781 15.207031 221.59375 16.671875 C 222.996094 18.121094 225.132812 19.554688 227.453125 20.601562 C 229.898438 21.707031 232.535156 22.390625 235.511719 22.6875 C 238.832031 23.019531 242.40625 22.828125 246.4375 22.09375 C 250.460938 21.367188 255.296875 20.042969 260.421875 18.644531 L 263.265625 17.871094 C 269.625 16.148438 276.996094 14.242188 284.050781 13.402344 C 291.65625 12.496094 298.753906 12.859375 304.566406 14.4375 C 310.785156 16.128906 316.03125 19.296875 320.15625 23.84375 C 323.386719 27.40625 325.84375 31.691406 327.886719 37.324219 C 328.589844 39.253906 329.15625 41.097656 329.636719 42.789062 L 366.648438 42.789062 C 375.550781 42.789062 382.527344 50.644531 382.527344 60.675781 L 382.527344 79.347656 C 383.140625 79.929688 383.742188 80.523438 384.335938 81.125 L 384.425781 81.21875 C 385.257812 82.085938 386.085938 82.996094 386.894531 83.914062 C 387.78125 84.875 388.660156 85.871094 389.503906 86.878906 C 389.570312 86.964844 389.640625 87.050781 389.707031 87.136719 C 390.496094 88.144531 391.269531 89.179688 392.003906 90.21875 C 392.769531 91.230469 393.527344 92.285156 394.265625 93.355469 C 394.324219 93.441406 394.378906 93.523438 394.433594 93.605469 C 395.132812 94.695312 395.816406 95.820312 396.472656 96.945312 C 397.164062 98.066406 397.84375 99.226562 398.492188 100.390625 C 398.539062 100.472656 398.582031 100.554688 398.625 100.640625 C 399.226562 101.796875 399.808594 102.980469 400.363281 104.167969 C 400.960938 105.363281 401.539062 106.589844 402.082031 107.816406 C 402.121094 107.898438 402.15625 107.980469 402.191406 108.0625 C 402.710938 109.320312 403.210938 110.613281 403.6875 111.917969 C 404.164062 113.136719 404.625 114.375 405.054688 115.613281 C 405.085938 115.703125 405.113281 115.789062 405.140625 115.878906 C 405.558594 117.207031 405.957031 118.5625 406.320312 119.910156 C 406.699219 121.175781 407.054688 122.472656 407.386719 123.769531 C 407.410156 123.855469 407.429688 123.941406 407.449219 124.023438 C 407.746094 125.347656 408.023438 126.695312 408.273438 128.035156 C 408.554688 129.386719 408.816406 130.765625 409.046875 132.140625 C 409.0625 132.222656 409.074219 132.300781 409.085938 132.382812 C 409.277344 133.738281 409.449219 135.113281 409.589844 136.472656 C 409.761719 137.847656 409.910156 139.238281 410.027344 140.613281 C 410.234375 143.28125 410.339844 145.90625 410.355469 148.496094 C 410.34375 151.207031 410.234375 153.832031 410.035156 156.410156 C 409.910156 157.867188 409.761719 159.265625 409.589844 160.640625 C 409.449219 162 409.277344 163.375 409.085938 164.730469 C 409.074219 164.8125 409.0625 164.890625 409.046875 164.972656 C 408.816406 166.347656 408.558594 167.726562 408.273438 169.074219 C 408.023438 170.417969 407.746094 171.765625 407.449219 173.089844 C 407.429688 173.171875 407.410156 173.257812 407.386719 173.34375 C 407.054688 174.640625 406.699219 175.9375 406.320312 177.203125 C 405.957031 178.542969 405.5625 179.898438 405.140625 181.230469 C 405.113281 181.320312 405.082031 181.410156 405.054688 181.5 C 404.625 182.734375 404.164062 183.976562 403.6875 185.191406 C 403.210938 186.496094 402.710938 187.792969 402.191406 189.046875 C 402.15625 189.132812 402.121094 189.214844 402.085938 189.296875 C 401.539062 190.519531 400.960938 191.746094 400.363281 192.945312 C 399.808594 194.128906 399.226562 195.316406 398.625 196.472656 C 398.582031 196.554688 398.535156 196.640625 398.492188 196.722656 C 397.84375 197.882812 397.164062 199.042969 396.472656 200.167969 C 395.816406 201.292969 395.132812 202.414062 394.433594 203.503906 C 394.378906 203.589844 394.320312 203.671875 394.265625 203.753906 C 393.527344 204.828125 392.769531 205.882812 392.003906 206.890625 C 391.269531 207.929688 390.496094 208.964844 389.707031 209.976562 C 389.640625 210.0625 389.570312 210.148438 389.503906 210.230469 C 388.660156 211.238281 387.78125 212.234375 386.894531 213.195312 C 386.085938 214.117188 385.257812 215.027344 384.425781 215.894531 L 384.335938 215.984375 C 383.742188 216.585938 383.140625 217.183594 382.527344 217.765625 L 382.527344 236.4375 C 382.527344 246.464844 375.554688 254.320312 366.648438 254.320312 L 329.636719 254.320312 C 329.15625 256.015625 328.589844 257.859375 327.890625 259.789062 C 325.84375 265.421875 323.382812 269.707031 320.152344 273.269531 C 316.03125 277.816406 310.785156 280.980469 304.570312 282.671875 C 298.753906 284.253906 291.660156 284.609375 284.050781 283.710938 C 277.003906 282.875 269.625 280.964844 263.265625 279.242188 L 260.417969 278.46875 C 255.292969 277.066406 250.457031 275.746094 246.4375 275.015625 C 242.40625 274.289062 238.832031 274.097656 235.511719 274.425781 C 232.535156 274.722656 229.898438 275.40625 227.453125 276.511719 C 225.132812 277.558594 223 278.992188 221.59375 280.445312 C 220.175781 281.910156 219.179688 283.695312 218.585938 284.765625 C 218.445312 285.015625 218.28125 285.3125 218.078125 285.640625 C 217.09375 287.636719 215.46875 289.195312 213.527344 290.121094 C 212.335938 290.695312 211.019531 291.03125 209.644531 291.078125 C 209.53125 291.082031 209.421875 291.082031 209.308594 291.082031 Z M 179.9375 254.863281 C 181.683594 254.863281 183.398438 254.949219 185.09375 255.117188 C 190.128906 255.621094 194.882812 256.867188 199.222656 258.828125 C 203.027344 260.550781 206.480469 262.769531 209.335938 265.320312 C 212.191406 262.769531 215.648438 260.546875 219.457031 258.828125 C 223.792969 256.871094 228.546875 255.621094 233.582031 255.117188 C 238.726562 254.597656 244.066406 254.867188 249.90625 255.921875 C 254.761719 256.804688 259.996094 258.234375 265.539062 259.746094 L 268.351562 260.511719 C 274.046875 262.054688 280.605469 263.757812 286.34375 264.441406 C 291.429688 265.046875 296.09375 264.871094 299.46875 263.949219 C 302.089844 263.238281 304.148438 262.027344 305.765625 260.242188 C 307.25 258.609375 308.476562 256.359375 309.636719 253.171875 C 310.441406 250.949219 311.035156 248.800781 311.554688 246.808594 C 311.578125 246.722656 311.601562 246.636719 311.625 246.554688 C 311.628906 246.542969 311.640625 246.496094 311.65625 246.449219 L 311.875 245.601562 C 312.003906 245.121094 312.121094 244.660156 312.199219 244.34375 C 312.289062 243.996094 312.390625 243.65625 312.515625 243.324219 C 313.15625 238.546875 317.242188 234.917969 322.140625 234.917969 L 363.109375 234.917969 L 363.109375 213.441406 C 363.109375 210.574219 364.378906 207.851562 366.574219 206.007812 C 367.898438 204.902344 369.195312 203.695312 370.441406 202.4375 C 371.082031 201.765625 371.71875 201.066406 372.339844 200.351562 C 372.410156 200.269531 372.484375 200.1875 372.554688 200.109375 C 373.21875 199.398438 373.871094 198.660156 374.503906 197.910156 C 375.101562 197.140625 375.683594 196.355469 376.238281 195.566406 C 376.304688 195.476562 376.367188 195.390625 376.433594 195.300781 C 377.019531 194.53125 377.601562 193.726562 378.171875 192.898438 C 378.710938 192.058594 379.238281 191.191406 379.742188 190.324219 C 379.785156 190.246094 379.832031 190.164062 379.882812 190.089844 C 380.417969 189.21875 380.949219 188.320312 381.453125 187.414062 C 381.925781 186.507812 382.375 185.585938 382.808594 184.652344 C 382.847656 184.566406 382.890625 184.480469 382.933594 184.394531 C 383.402344 183.453125 383.859375 182.492188 384.292969 181.527344 C 384.703125 180.53125 385.101562 179.496094 385.476562 178.460938 C 385.507812 178.375 385.539062 178.292969 385.574219 178.207031 C 385.957031 177.238281 386.320312 176.257812 386.664062 175.269531 C 387.003906 174.199219 387.316406 173.113281 387.605469 172.042969 C 387.628906 171.957031 387.652344 171.871094 387.679688 171.78125 C 387.984375 170.757812 388.269531 169.726562 388.539062 168.683594 C 388.777344 167.613281 389 166.535156 389.199219 165.449219 C 389.214844 165.367188 389.230469 165.289062 389.246094 165.207031 C 389.480469 164.101562 389.691406 162.996094 389.878906 161.878906 C 390.035156 160.773438 390.171875 159.667969 390.285156 158.554688 C 390.292969 158.476562 390.300781 158.398438 390.3125 158.320312 C 390.457031 157.160156 390.582031 156 390.683594 154.832031 C 390.839844 152.808594 390.929688 150.65625 390.9375 148.535156 C 390.929688 146.464844 390.839844 144.316406 390.675781 142.207031 C 390.582031 141.128906 390.457031 139.964844 390.3125 138.808594 C 390.300781 138.730469 390.292969 138.652344 390.285156 138.570312 C 390.171875 137.460938 390.035156 136.351562 389.878906 135.246094 C 389.691406 134.132812 389.480469 133.023438 389.25 131.921875 C 389.230469 131.839844 389.214844 131.757812 389.199219 131.675781 C 389 130.589844 388.78125 129.511719 388.539062 128.441406 C 388.273438 127.398438 387.984375 126.367188 387.679688 125.34375 C 387.65625 125.257812 387.628906 125.171875 387.609375 125.085938 C 387.316406 124.007812 387 122.921875 386.667969 121.859375 C 386.320312 120.867188 385.957031 119.886719 385.574219 118.917969 C 385.542969 118.835938 385.507812 118.75 385.480469 118.664062 C 385.101562 117.628906 384.703125 116.597656 384.292969 115.597656 C 383.863281 114.636719 383.40625 113.671875 382.933594 112.730469 C 382.890625 112.644531 382.851562 112.558594 382.8125 112.476562 C 382.375 111.539062 381.925781 110.617188 381.457031 109.710938 C 380.949219 108.804688 380.421875 107.90625 379.882812 107.039062 C 379.835938 106.960938 379.789062 106.878906 379.742188 106.800781 C 379.238281 105.933594 378.710938 105.066406 378.175781 104.226562 C 377.605469 103.402344 377.019531 102.59375 376.4375 101.824219 C 376.367188 101.738281 376.304688 101.648438 376.242188 101.558594 C 375.683594 100.773438 375.101562 99.984375 374.503906 99.21875 C 373.875 98.46875 373.21875 97.726562 372.558594 97.015625 C 372.484375 96.9375 372.410156 96.855469 372.339844 96.773438 C 371.722656 96.058594 371.082031 95.359375 370.441406 94.691406 C 369.199219 93.429688 367.898438 92.226562 366.578125 91.117188 C 364.378906 89.273438 363.113281 86.554688 363.113281 83.6875 L 363.113281 62.207031 L 322.140625 62.207031 C 317.246094 62.207031 313.160156 58.578125 312.515625 53.804688 C 312.390625 53.46875 312.289062 53.128906 312.203125 52.78125 C 312.125 52.46875 312.003906 52.003906 311.878906 51.523438 L 311.65625 50.675781 C 311.648438 50.644531 311.640625 50.617188 311.640625 50.609375 C 311.613281 50.515625 311.582031 50.410156 311.558594 50.316406 C 311.039062 48.324219 310.445312 46.175781 309.636719 43.949219 C 308.480469 40.765625 307.25 38.515625 305.769531 36.882812 C 304.152344 35.101562 302.09375 33.886719 299.472656 33.171875 C 296.09375 32.253906 291.429688 32.078125 286.351562 32.6875 C 280.601562 33.371094 274.046875 35.070312 268.355469 36.613281 L 265.546875 37.375 C 260.003906 38.890625 254.765625 40.320312 249.910156 41.203125 C 244.074219 42.261719 238.734375 42.523438 233.585938 42.007812 C 228.546875 41.503906 223.792969 40.253906 219.460938 38.296875 C 215.65625 36.578125 212.199219 34.355469 209.34375 31.804688 C 206.488281 34.355469 203.03125 36.578125 199.226562 38.296875 C 194.890625 40.257812 190.136719 41.503906 185.097656 42.007812 C 179.953125 42.527344 174.613281 42.261719 168.773438 41.199219 C 163.917969 40.320312 158.679688 38.890625 153.136719 37.375 L 150.332031 36.613281 C 144.640625 35.070312 138.082031 33.371094 132.335938 32.6875 C 127.253906 32.082031 122.59375 32.253906 119.210938 33.175781 C 116.59375 33.886719 114.535156 35.101562 112.914062 36.882812 C 111.433594 38.515625 110.207031 40.761719 109.046875 43.953125 C 108.242188 46.175781 107.648438 48.324219 107.128906 50.316406 C 107.101562 50.410156 107.078125 50.507812 107.050781 50.601562 C 107.046875 50.609375 107.042969 50.632812 107.03125 50.660156 L 106.808594 51.523438 C 106.683594 52.003906 106.5625 52.464844 106.484375 52.78125 C 106.398438 53.125 106.292969 53.46875 106.171875 53.800781 C 105.527344 58.578125 101.441406 62.203125 96.546875 62.203125 L 55.570312 62.203125 L 55.570312 83.683594 C 55.570312 86.550781 54.300781 89.269531 52.101562 91.113281 C 50.78125 92.222656 49.480469 93.425781 48.234375 94.691406 C 47.597656 95.359375 46.960938 96.058594 46.339844 96.773438 C 46.269531 96.855469 46.195312 96.933594 46.121094 97.015625 C 45.460938 97.726562 44.804688 98.464844 44.175781 99.214844 C 43.578125 99.984375 42.996094 100.769531 42.4375 101.558594 C 42.375 101.648438 42.3125 101.734375 42.246094 101.820312 C 41.660156 102.589844 41.078125 103.398438 40.507812 104.226562 C 39.96875 105.066406 39.441406 105.933594 38.9375 106.800781 C 38.890625 106.878906 38.84375 106.960938 38.796875 107.039062 C 38.261719 107.902344 37.734375 108.796875 37.222656 109.710938 C 36.753906 110.617188 36.304688 111.539062 35.871094 112.476562 C 35.828125 112.558594 35.789062 112.644531 35.746094 112.730469 C 35.273438 113.671875 34.820312 114.636719 34.386719 115.601562 C 33.976562 116.597656 33.578125 117.625 33.203125 118.664062 C 33.171875 118.746094 33.140625 118.832031 33.105469 118.917969 C 32.722656 119.886719 32.359375 120.867188 32.011719 121.859375 C 31.679688 122.921875 31.363281 124.007812 31.074219 125.085938 C 31.050781 125.167969 31.027344 125.257812 31.003906 125.339844 C 30.695312 126.363281 30.410156 127.398438 30.140625 128.441406 C 29.902344 129.511719 29.679688 130.589844 29.480469 131.675781 C 29.46875 131.757812 29.449219 131.835938 29.433594 131.917969 C 29.199219 133.023438 28.992188 134.128906 28.800781 135.246094 C 28.644531 136.351562 28.511719 137.457031 28.398438 138.570312 C 28.386719 138.652344 28.378906 138.730469 28.367188 138.8125 C 28.222656 139.96875 28.097656 141.128906 27.996094 142.292969 C 27.839844 144.316406 27.753906 146.46875 27.742188 148.589844 C 27.753906 150.660156 27.839844 152.808594 28.003906 154.917969 C 28.097656 155.996094 28.222656 157.15625 28.367188 158.316406 C 28.378906 158.394531 28.386719 158.472656 28.394531 158.554688 C 28.507812 159.667969 28.644531 160.773438 28.800781 161.878906 C 28.988281 162.996094 29.199219 164.101562 29.433594 165.207031 C 29.449219 165.289062 29.464844 165.367188 29.480469 165.449219 C 29.679688 166.535156 29.898438 167.613281 30.140625 168.683594 C 30.40625 169.726562 30.695312 170.761719 31 171.78125 C 31.027344 171.871094 31.050781 171.957031 31.074219 172.042969 C 31.363281 173.113281 31.675781 174.195312 32.011719 175.265625 C 32.359375 176.257812 32.722656 177.238281 33.105469 178.207031 C 33.140625 178.289062 33.171875 178.375 33.203125 178.457031 C 33.578125 179.496094 33.976562 180.527344 34.386719 181.523438 C 34.820312 182.488281 35.277344 183.453125 35.746094 184.394531 C 35.789062 184.476562 35.828125 184.5625 35.871094 184.648438 C 36.304688 185.582031 36.757812 186.503906 37.222656 187.410156 C 37.734375 188.324219 38.261719 189.222656 38.796875 190.082031 C 38.84375 190.160156 38.890625 190.242188 38.9375 190.324219 C 39.441406 191.191406 39.96875 192.054688 40.507812 192.898438 C 41.078125 193.722656 41.660156 194.53125 42.246094 195.300781 C 42.3125 195.386719 42.375 195.476562 42.4375 195.566406 C 42.996094 196.351562 43.578125 197.140625 44.175781 197.90625 C 44.804688 198.65625 45.460938 199.398438 46.121094 200.109375 C 46.195312 200.1875 46.269531 200.269531 46.339844 200.351562 C 46.960938 201.0625 47.597656 201.765625 48.234375 202.433594 C 49.480469 203.695312 50.78125 204.898438 52.101562 206.007812 C 54.300781 207.851562 55.570312 210.574219 55.570312 213.441406 L 55.570312 234.917969 L 96.539062 234.917969 C 101.4375 234.917969 105.523438 238.546875 106.164062 243.324219 C 106.289062 243.660156 106.394531 244.003906 106.480469 244.355469 C 106.558594 244.667969 106.679688 245.128906 106.804688 245.605469 L 107.027344 246.453125 C 107.035156 246.484375 107.042969 246.511719 107.042969 246.519531 C 107.066406 246.597656 107.101562 246.730469 107.125 246.808594 C 107.644531 248.800781 108.238281 250.957031 109.046875 253.175781 C 110.203125 256.359375 111.433594 258.609375 112.914062 260.242188 C 114.53125 262.027344 116.589844 263.238281 119.210938 263.953125 C 122.585938 264.875 127.246094 265.046875 132.332031 264.441406 C 138.078125 263.757812 144.636719 262.054688 150.328125 260.515625 L 153.140625 259.75 C 158.679688 258.234375 163.917969 256.804688 168.769531 255.925781 C 172.6875 255.214844 176.378906 254.863281 179.9375 254.863281 Z M 312.6875 242.878906 C 312.6875 242.878906 312.6875 242.882812 312.6875 242.886719 C 312.6875 242.886719 312.6875 242.882812 312.6875 242.878906 Z M 105.988281 242.878906 C 105.988281 242.878906 105.988281 242.878906 105.988281 242.882812 C 105.988281 242.882812 105.988281 242.882812 105.988281 242.878906 Z M 312.6875 54.246094 L 312.6875 54.253906 C 312.6875 54.253906 312.6875 54.25 312.6875 54.246094 Z M 105.988281 54.246094 C 105.988281 54.246094 105.988281 54.253906 105.984375 54.253906 C 105.984375 54.253906 105.984375 54.25 105.988281 54.246094 Z M 312.441406 53.082031 C 312.441406 53.082031 312.441406 53.085938 312.441406 53.089844 C 312.441406 53.085938 312.441406 53.085938 312.441406 53.082031 Z M 312.441406 53.082031 " fill-opacity="1" fill-rule="nonzero"/></g><path fill="#ffda00" d="M 204.617188 282.714844 C 203.597656 280.242188 204.796875 277.402344 207.273438 276.394531 C 209.761719 275.390625 212.589844 276.578125 213.609375 279.050781 C 214.617188 281.539062 213.429688 284.367188 210.941406 285.386719 C 210.347656 285.628906 209.714844 285.738281 209.109375 285.738281 C 207.191406 285.738281 205.378906 284.59375 204.617188 282.714844 Z M 126.5 274.695312 C 126.269531 272.027344 128.261719 269.675781 130.929688 269.457031 C 133.601562 269.226562 135.945312 271.214844 136.175781 273.882812 C 136.40625 276.550781 134.414062 278.90625 131.742188 279.125 C 131.609375 279.136719 131.464844 279.136719 131.332031 279.136719 C 128.832031 279.136719 126.707031 277.230469 126.5 274.695312 Z M 285.644531 279.003906 C 282.972656 278.726562 281.03125 276.347656 281.308594 273.679688 C 281.589844 271.007812 283.980469 269.082031 286.640625 269.359375 C 289.308594 269.625 291.253906 272.015625 290.972656 274.683594 C 290.71875 277.171875 288.605469 279.027344 286.152344 279.027344 C 285.984375 279.027344 285.816406 279.027344 285.644531 279 Z M 298.351562 274.480469 C 297.550781 271.929688 298.972656 269.199219 301.53125 268.402344 C 304.09375 267.601562 306.8125 269.019531 307.613281 271.578125 C 308.414062 274.136719 306.996094 276.855469 304.433594 277.65625 C 303.960938 277.816406 303.460938 277.886719 302.988281 277.886719 C 300.914062 277.886719 299.007812 276.554688 298.351562 274.480469 Z M 112.878906 277.195312 C 110.367188 276.273438 109.066406 273.496094 109.992188 270.972656 C 110.914062 268.460938 113.707031 267.164062 116.21875 268.085938 C 118.742188 269.007812 120.03125 271.796875 119.109375 274.308594 C 118.390625 276.273438 116.535156 277.5 114.554688 277.5 C 113.996094 277.5 113.425781 277.402344 112.878906 277.195312 Z M 143.3125 272.367188 C 142.65625 269.757812 144.222656 267.125 146.820312 266.460938 C 149.421875 265.792969 152.054688 267.359375 152.722656 269.953125 C 153.390625 272.550781 151.824219 275.195312 149.226562 275.859375 C 148.824219 275.957031 148.425781 276.007812 148.023438 276.007812 C 145.851562 276.007812 143.882812 274.550781 143.3125 272.367188 Z M 268.261719 275.558594 C 265.675781 274.878906 264.121094 272.222656 264.789062 269.636719 C 265.46875 267.042969 268.128906 265.488281 270.710938 266.167969 L 270.722656 266.167969 C 273.308594 266.835938 274.863281 269.492188 274.183594 272.085938 C 273.613281 274.269531 271.644531 275.714844 269.496094 275.714844 C 269.085938 275.714844 268.671875 275.664062 268.257812 275.554688 Z M 215.941406 271.917969 C 214.558594 269.613281 215.308594 266.640625 217.605469 265.257812 C 219.910156 263.875 222.886719 264.625 224.269531 266.921875 C 225.652344 269.226562 224.902344 272.210938 222.605469 273.582031 C 221.816406 274.050781 220.953125 274.273438 220.105469 274.273438 C 218.464844 274.273438 216.851562 273.433594 215.941406 271.917969 Z M 195.195312 273.070312 C 192.839844 271.785156 191.980469 268.835938 193.277344 266.484375 C 194.5625 264.128906 197.527344 263.28125 199.867188 264.566406 C 202.226562 265.863281 203.074219 268.8125 201.785156 271.167969 C 200.898438 272.769531 199.238281 273.679688 197.527344 273.679688 C 196.738281 273.679688 195.9375 273.484375 195.195312 273.070312 Z M 159.726562 267.949219 C 159.09375 265.355469 160.683594 262.722656 163.28125 262.078125 C 165.890625 261.4375 168.515625 263.023438 169.15625 265.632812 C 169.800781 268.226562 168.210938 270.863281 165.613281 271.503906 C 165.210938 271.601562 164.824219 271.636719 164.445312 271.636719 C 162.261719 271.636719 160.269531 270.15625 159.722656 267.949219 Z M 251.945312 271.222656 C 249.335938 270.605469 247.722656 267.984375 248.339844 265.390625 C 248.960938 262.78125 251.582031 261.171875 254.191406 261.789062 C 256.800781 262.40625 258.402344 265.027344 257.785156 267.632812 C 257.261719 269.855469 255.257812 271.359375 253.0625 271.359375 C 252.699219 271.359375 252.320312 271.324219 251.945312 271.226562 Z M 231.394531 264.929688 C 231.226562 262.25 233.277344 259.941406 235.949219 259.796875 L 235.949219 259.785156 C 238.628906 259.628906 240.925781 261.664062 241.082031 264.347656 C 241.238281 267.027344 239.199219 269.320312 236.527344 269.476562 C 236.429688 269.476562 236.324219 269.488281 236.226562 269.488281 C 233.6875 269.488281 231.539062 267.5 231.394531 264.929688 Z M 181.089844 269.429688 C 178.410156 269.34375 176.308594 267.113281 176.394531 264.429688 C 176.464844 261.75 178.710938 259.652344 181.382812 259.722656 C 184.066406 259.808594 186.179688 262.054688 186.09375 264.734375 C 186.019531 267.355469 183.859375 269.429688 181.25 269.429688 Z M 313.480469 266.855469 C 311.160156 265.496094 310.382812 262.523438 311.742188 260.222656 C 313.089844 257.90625 316.0625 257.128906 318.382812 258.472656 C 320.699219 259.832031 321.476562 262.804688 320.121094 265.109375 C 319.222656 266.664062 317.59375 267.523438 315.929688 267.523438 C 315.09375 267.523438 314.257812 267.304688 313.480469 266.855469 Z M 97.863281 263.898438 C 96.617188 261.53125 97.511719 258.597656 99.878906 257.335938 C 102.246094 256.074219 105.183594 256.96875 106.445312 259.335938 C 107.710938 261.703125 106.8125 264.648438 104.433594 265.898438 C 103.714844 266.285156 102.925781 266.46875 102.164062 266.46875 C 100.425781 266.46875 98.738281 265.535156 97.863281 263.898438 Z M 320.433594 251.425781 C 317.835938 250.78125 316.257812 248.140625 316.902344 245.542969 C 317.546875 242.945312 320.179688 241.355469 322.789062 242.011719 C 325.386719 242.652344 326.976562 245.285156 326.320312 247.882812 C 325.777344 250.089844 323.796875 251.570312 321.625 251.570312 C 321.222656 251.570312 320.835938 251.523438 320.433594 251.425781 Z M 91.964844 246.71875 C 91.332031 244.109375 92.9375 241.492188 95.546875 240.859375 C 98.15625 240.230469 100.777344 241.84375 101.410156 244.449219 C 102.027344 247.058594 100.425781 249.664062 97.816406 250.296875 C 97.441406 250.382812 97.050781 250.429688 96.675781 250.429688 C 94.492188 250.429688 92.5 248.9375 91.964844 246.71875 Z M 349.09375 244.621094 C 349.09375 241.941406 351.265625 239.765625 353.949219 239.765625 C 356.632812 239.765625 358.804688 241.9375 358.804688 244.621094 C 358.804688 247.300781 356.632812 249.472656 353.949219 249.472656 C 351.269531 249.472656 349.09375 247.300781 349.09375 244.621094 Z M 332.097656 244.621094 C 332.097656 241.941406 334.273438 239.765625 336.957031 239.765625 C 339.636719 239.765625 341.8125 241.9375 341.8125 244.621094 C 341.8125 247.300781 339.640625 249.472656 336.957031 249.472656 C 334.273438 249.472656 332.097656 247.300781 332.097656 244.621094 Z M 75.660156 244.621094 C 75.660156 241.941406 77.835938 239.765625 80.519531 239.765625 C 83.199219 239.765625 85.375 241.9375 85.375 244.621094 C 85.375 247.300781 83.199219 249.472656 80.519531 249.472656 C 77.835938 249.472656 75.660156 247.300781 75.660156 244.621094 Z M 58.667969 244.621094 C 58.667969 241.941406 60.839844 239.765625 63.523438 239.765625 C 66.207031 239.765625 68.378906 241.9375 68.378906 244.621094 C 68.378906 247.300781 66.207031 249.472656 63.523438 249.472656 C 60.839844 249.472656 58.667969 247.300781 58.667969 244.621094 Z M 367.070312 246.378906 C 365.140625 244.523438 365.09375 241.441406 366.949219 239.523438 C 368.820312 237.585938 371.890625 237.535156 373.820312 239.390625 C 375.75 241.257812 375.796875 244.328125 373.941406 246.257812 C 372.984375 247.238281 371.722656 247.738281 370.445312 247.738281 C 369.230469 247.738281 368.019531 247.289062 367.070312 246.378906 Z M 43.46875 244.714844 C 41.953125 242.507812 42.511719 239.488281 44.71875 237.957031 C 46.917969 236.441406 49.9375 237 51.46875 239.207031 C 52.984375 241.40625 52.425781 244.4375 50.21875 245.953125 C 49.378906 246.535156 48.421875 246.816406 47.476562 246.816406 C 45.933594 246.816406 44.417969 246.074219 43.46875 244.714844 Z M 367.957031 226.496094 C 367.957031 223.816406 370.132812 221.644531 372.816406 221.644531 C 375.496094 221.644531 377.671875 223.816406 377.671875 226.496094 C 377.671875 229.175781 375.5 231.347656 372.816406 231.347656 C 370.132812 231.347656 367.957031 229.179688 367.957031 226.496094 Z M 41.003906 225.292969 C 41.003906 222.613281 43.179688 220.441406 45.863281 220.441406 C 48.542969 220.441406 50.71875 222.613281 50.71875 225.292969 C 50.71875 227.976562 48.546875 230.148438 45.863281 230.148438 C 43.179688 230.148438 41.003906 227.976562 41.003906 225.292969 Z M 372.21875 214.160156 C 370.375 212.214844 370.457031 209.148438 372.402344 207.292969 C 374.34375 205.449219 377.425781 205.535156 379.273438 207.472656 C 381.117188 209.425781 381.03125 212.496094 379.089844 214.339844 C 378.144531 215.226562 376.941406 215.675781 375.753906 215.675781 C 374.464844 215.675781 373.179688 215.164062 372.21875 214.160156 Z M 38.664062 213.441406 C 36.757812 211.5625 36.730469 208.492188 38.601562 206.574219 C 40.480469 204.671875 43.554688 204.644531 45.472656 206.527344 C 47.378906 208.40625 47.414062 211.476562 45.53125 213.394531 C 44.574219 214.351562 43.324219 214.835938 42.058594 214.835938 C 40.835938 214.835938 39.609375 214.375 38.664062 213.441406 Z M 383.980469 201.867188 C 381.710938 200.449219 381.03125 197.441406 382.464844 195.183594 C 383.898438 192.914062 386.894531 192.238281 389.167969 193.667969 C 391.425781 195.097656 392.105469 198.097656 390.671875 200.363281 C 389.75 201.820312 388.183594 202.621094 386.566406 202.621094 C 385.679688 202.621094 384.785156 202.378906 383.980469 201.867188 Z M 27.324219 199.285156 C 25.929688 196.992188 26.65625 194.007812 28.9375 192.613281 C 31.230469 191.21875 34.21875 191.933594 35.613281 194.226562 C 37.011719 196.507812 36.292969 199.503906 34 200.898438 C 33.210938 201.371094 32.335938 201.601562 31.476562 201.601562 C 29.835938 201.601562 28.246094 200.777344 27.324219 199.285156 Z M 392.566406 187.214844 C 390.050781 186.269531 388.777344 183.480469 389.722656 180.96875 C 390.660156 178.457031 393.460938 177.183594 395.976562 178.128906 C 398.488281 179.0625 399.75 181.851562 398.816406 184.375 C 398.085938 186.316406 396.230469 187.519531 394.261719 187.519531 C 393.703125 187.519531 393.125 187.421875 392.566406 187.214844 Z M 19.46875 183.308594 C 18.488281 180.808594 19.726562 177.996094 22.214844 177.027344 C 24.714844 176.054688 27.53125 177.28125 28.515625 179.777344 C 29.484375 182.265625 28.257812 185.078125 25.757812 186.0625 C 25.175781 186.292969 24.582031 186.402344 23.984375 186.390625 C 22.042969 186.390625 20.210938 185.226562 19.46875 183.308594 Z M 397.964844 171.117188 C 395.332031 170.582031 393.632812 168.035156 394.15625 165.402344 C 394.6875 162.773438 397.25 161.070312 399.871094 161.605469 C 402.503906 162.128906 404.203125 164.6875 403.683594 167.320312 C 403.210938 169.625 401.183594 171.214844 398.925781 171.214844 C 398.609375 171.214844 398.28125 171.175781 397.964844 171.117188 Z M 14.757812 166.089844 C 14.261719 163.445312 15.996094 160.921875 18.632812 160.425781 C 21.265625 159.925781 23.804688 161.660156 24.300781 164.296875 C 24.796875 166.925781 23.0625 169.464844 20.429688 169.960938 C 20.125 170.019531 19.820312 170.046875 19.519531 170.046875 C 17.234375 170.046875 15.195312 168.417969 14.757812 166.089844 Z M 400.5625 154.347656 C 397.894531 154.308594 395.746094 152.101562 395.78125 149.421875 C 395.816406 146.753906 398.027344 144.605469 400.699219 144.640625 C 403.378906 144.679688 405.527344 146.886719 405.492188 149.554688 C 405.457031 152.222656 403.285156 154.34375 400.636719 154.34375 L 400.566406 154.34375 Z M 18 153.144531 C 15.320312 153.121094 13.15625 150.9375 13.179688 148.257812 C 13.191406 145.578125 15.378906 143.417969 18.058594 143.441406 C 20.742188 143.464844 22.902344 145.648438 22.878906 148.328125 C 22.867188 150.996094 20.695312 153.144531 18.035156 153.144531 Z M 394.492188 133.445312 C 394.007812 130.8125 395.769531 128.289062 398.402344 127.816406 C 401.046875 127.332031 403.574219 129.089844 404.046875 131.722656 C 404.519531 134.355469 402.773438 136.878906 400.136719 137.363281 C 399.835938 137.410156 399.542969 137.4375 399.265625 137.4375 C 396.957031 137.4375 394.917969 135.796875 394.492188 133.445312 Z M 18.707031 136.175781 C 16.070312 135.667969 14.347656 133.121094 14.859375 130.488281 C 15.367188 127.855469 17.917969 126.132812 20.550781 126.640625 C 23.183594 127.152344 24.910156 129.699219 24.398438 132.332031 C 23.949219 134.648438 21.910156 136.261719 19.628906 136.261719 C 19.324219 136.261719 19.007812 136.238281 18.707031 136.179688 Z M 390.390625 117.929688 C 389.433594 115.421875 390.683594 112.617188 393.195312 111.660156 C 395.695312 110.703125 398.5 111.964844 399.460938 114.460938 L 399.472656 114.460938 C 400.417969 116.960938 399.167969 119.777344 396.667969 120.734375 C 396.097656 120.953125 395.515625 121.046875 394.933594 121.046875 C 392.976562 121.046875 391.132812 119.859375 390.390625 117.929688 Z M 22.503906 119.628906 C 19.992188 118.707031 18.691406 115.917969 19.617188 113.40625 C 20.539062 110.882812 23.332031 109.597656 25.84375 110.519531 C 28.367188 111.441406 29.65625 114.230469 28.734375 116.742188 C 28.015625 118.707031 26.160156 119.933594 24.179688 119.933594 C 23.621094 119.933594 23.050781 119.835938 22.503906 119.628906 Z M 383.386719 103.421875 C 382.003906 101.128906 382.753906 98.144531 385.050781 96.773438 C 387.355469 95.394531 390.332031 96.144531 391.714844 98.4375 C 393.085938 100.742188 392.347656 103.714844 390.039062 105.097656 C 389.261719 105.558594 388.398438 105.789062 387.550781 105.789062 C 385.902344 105.789062 384.296875 104.941406 383.386719 103.421875 Z M 29.195312 104.03125 C 26.910156 102.621094 26.207031 99.625 27.628906 97.359375 C 29.035156 95.078125 32.035156 94.375 34.304688 95.78125 C 36.585938 97.199219 37.289062 100.183594 35.882812 102.46875 C 34.960938 103.945312 33.367188 104.757812 31.742188 104.757812 C 30.867188 104.757812 29.992188 104.527344 29.191406 104.03125 Z M 373.640625 91.023438 C 371.746094 89.132812 371.757812 86.0625 373.652344 84.160156 C 375.558594 82.28125 378.628906 82.28125 380.523438 84.183594 C 382.414062 86.078125 382.402344 89.144531 380.507812 91.039062 C 379.5625 91.984375 378.324219 92.457031 377.085938 92.457031 C 375.835938 92.457031 374.585938 91.984375 373.640625 91.023438 Z M 38.964844 90.140625 C 37.097656 88.210938 37.144531 85.144531 39.074219 83.273438 C 40.992188 81.417969 44.066406 81.46875 45.933594 83.382812 C 47.804688 85.3125 47.753906 88.382812 45.824219 90.25 C 44.890625 91.160156 43.664062 91.609375 42.449219 91.609375 C 41.1875 91.609375 39.914062 91.121094 38.964844 90.140625 Z M 367.957031 72.492188 C 367.957031 69.808594 370.132812 67.636719 372.816406 67.636719 C 375.496094 67.636719 377.671875 69.808594 377.671875 72.492188 C 377.671875 75.171875 375.5 77.34375 372.816406 77.34375 C 370.132812 77.34375 367.957031 75.171875 367.957031 72.492188 Z M 41.003906 71.289062 C 41.003906 68.609375 43.179688 66.4375 45.863281 66.4375 C 48.542969 66.4375 50.71875 68.605469 50.71875 71.289062 C 50.71875 73.96875 48.546875 76.140625 45.863281 76.140625 C 43.179688 76.140625 41.003906 73.96875 41.003906 71.289062 Z M 367.351562 58.136719 C 366.015625 55.808594 366.816406 52.847656 369.148438 51.515625 C 371.46875 50.179688 374.441406 50.980469 375.777344 53.308594 C 377.113281 55.628906 376.3125 58.597656 373.980469 59.933594 C 373.214844 60.371094 372.390625 60.578125 371.5625 60.578125 C 369.890625 60.578125 368.25 59.703125 367.351562 58.136719 Z M 44.753906 58.527344 C 42.65625 56.851562 42.316406 53.796875 43.992188 51.707031 L 43.992188 51.695312 C 45.664062 49.609375 48.710938 49.269531 50.8125 50.933594 C 52.914062 52.605469 53.253906 55.664062 51.578125 57.761719 C 50.617188 58.953125 49.210938 59.582031 47.777344 59.582031 C 46.722656 59.582031 45.652344 59.230469 44.753906 58.527344 Z M 350.964844 52.496094 C 350.964844 49.816406 353.136719 47.65625 355.820312 47.65625 C 358.5 47.65625 360.675781 49.816406 360.675781 52.496094 C 360.675781 55.175781 358.503906 57.347656 355.820312 57.347656 C 353.136719 57.347656 350.964844 55.175781 350.964844 52.496094 Z M 333.96875 52.496094 C 333.96875 49.816406 336.140625 47.65625 338.824219 47.65625 C 341.507812 47.65625 343.679688 49.816406 343.679688 52.496094 C 343.679688 55.175781 341.507812 57.347656 338.824219 57.347656 C 336.144531 57.347656 333.96875 55.175781 333.96875 52.496094 Z M 76.195312 52.496094 C 76.195312 49.816406 78.367188 47.65625 81.050781 47.65625 C 83.734375 47.65625 85.910156 49.816406 85.910156 52.496094 C 85.910156 55.175781 83.734375 57.347656 81.050781 57.347656 C 78.371094 57.347656 76.195312 55.175781 76.195312 52.496094 Z M 59.203125 52.496094 C 59.203125 49.816406 61.375 47.65625 64.058594 47.65625 C 66.742188 47.65625 68.914062 49.816406 68.914062 52.496094 C 68.914062 55.175781 66.742188 57.347656 64.058594 57.347656 C 61.375 57.347656 59.203125 55.175781 59.203125 52.496094 Z M 317.292969 52.761719 C 316.976562 50.105469 318.871094 47.691406 321.539062 47.375 C 324.199219 47.0625 326.613281 48.953125 326.929688 51.621094 C 327.246094 54.277344 325.339844 56.691406 322.683594 57.007812 C 322.488281 57.035156 322.292969 57.046875 322.097656 57.046875 C 319.671875 57.046875 317.582031 55.238281 317.292969 52.761719 Z M 95.304688 55.636719 C 92.765625 54.789062 91.382812 52.046875 92.222656 49.5 C 93.058594 46.953125 95.8125 45.582031 98.351562 46.421875 C 100.898438 47.257812 102.285156 50.011719 101.449219 52.546875 C 100.769531 54.582031 98.875 55.882812 96.832031 55.882812 C 96.324219 55.882812 95.8125 55.796875 95.304688 55.640625 Z M 312.496094 38.28125 C 311.28125 35.890625 312.242188 32.964844 314.632812 31.765625 C 317.023438 30.554688 319.949219 31.511719 321.152344 33.902344 C 322.367188 36.304688 321.40625 39.214844 319.015625 40.425781 C 318.3125 40.777344 317.570312 40.949219 316.832031 40.949219 C 315.058594 40.949219 313.34375 39.980469 312.496094 38.28125 Z M 100.0625 39.273438 C 97.71875 37.976562 96.871094 35.027344 98.167969 32.675781 C 99.46875 30.332031 102.429688 29.484375 104.773438 30.78125 C 107.117188 32.089844 107.964844 35.039062 106.667969 37.378906 C 105.78125 38.980469 104.117188 39.878906 102.40625 39.878906 C 101.617188 39.878906 100.804688 39.6875 100.0625 39.273438 Z M 238.035156 37.40625 C 235.351562 37.359375 233.203125 35.164062 233.253906 32.480469 C 233.289062 29.800781 235.496094 27.664062 238.171875 27.699219 C 240.851562 27.738281 243 29.945312 242.953125 32.625 C 242.914062 35.28125 240.753906 37.40625 238.109375 37.40625 Z M 176.929688 32.722656 C 176.804688 30.042969 178.882812 27.785156 181.566406 27.664062 C 184.246094 27.558594 186.503906 29.632812 186.628906 32.3125 C 186.738281 34.992188 184.660156 37.25 181.976562 37.371094 L 181.773438 37.371094 C 179.1875 37.371094 177.039062 35.332031 176.929688 32.722656 Z M 163.820312 35.171875 C 161.21875 34.542969 159.617188 31.910156 160.25 29.3125 C 160.882812 26.707031 163.503906 25.105469 166.113281 25.738281 C 168.722656 26.367188 170.3125 29 169.683594 31.609375 C 169.148438 33.8125 167.15625 35.308594 164.972656 35.308594 C 164.597656 35.308594 164.207031 35.269531 163.820312 35.171875 Z M 250.164062 31.351562 C 249.519531 28.746094 251.097656 26.109375 253.695312 25.457031 C 256.292969 24.8125 258.941406 26.390625 259.582031 28.988281 C 260.238281 31.582031 258.660156 34.226562 256.0625 34.871094 C 255.660156 34.96875 255.261719 35.015625 254.875 35.015625 C 252.699219 35.015625 250.722656 33.546875 250.164062 31.355469 Z M 219.476562 32.917969 L 219.488281 32.917969 C 217.105469 31.667969 216.183594 28.730469 217.4375 26.367188 C 218.675781 23.988281 221.609375 23.066406 223.992188 24.316406 C 226.359375 25.554688 227.28125 28.488281 226.03125 30.867188 C 225.167969 32.515625 223.480469 33.460938 221.71875 33.460938 C 220.96875 33.460938 220.203125 33.292969 219.476562 32.917969 Z M 193.777344 30.441406 C 192.453125 28.113281 193.253906 25.152344 195.585938 23.820312 C 197.914062 22.496094 200.878906 23.296875 202.210938 25.625 C 203.546875 27.957031 202.734375 30.914062 200.402344 32.25 C 199.648438 32.6875 198.8125 32.894531 198 32.894531 C 196.3125 32.894531 194.671875 32.007812 193.777344 30.445312 Z M 147.320312 30.792969 C 144.734375 30.125 143.167969 27.480469 143.835938 24.886719 C 144.503906 22.289062 147.160156 20.726562 149.746094 21.394531 C 152.34375 22.070312 153.910156 24.714844 153.242188 27.3125 C 152.671875 29.496094 150.707031 30.953125 148.535156 30.953125 C 148.132812 30.953125 147.730469 30.90625 147.320312 30.796875 Z M 266.601562 26.984375 C 265.933594 24.390625 267.511719 21.753906 270.109375 21.089844 C 272.707031 20.433594 275.351562 22.011719 276.007812 24.605469 C 276.664062 27.203125 275.097656 29.847656 272.488281 30.503906 C 272.101562 30.601562 271.699219 30.648438 271.296875 30.648438 C 269.125 30.648438 267.160156 29.195312 266.601562 26.984375 Z M 302.957031 29.230469 C 300.46875 28.234375 299.242188 25.40625 300.238281 22.921875 C 301.21875 20.433594 304.050781 19.207031 306.539062 20.203125 C 309.039062 21.199219 310.253906 24.011719 309.257812 26.511719 C 308.503906 28.402344 306.683594 29.566406 304.753906 29.566406 C 304.144531 29.566406 303.539062 29.457031 302.957031 29.230469 Z M 110.464844 25.867188 C 109.59375 23.332031 110.953125 20.582031 113.488281 19.707031 C 116.027344 18.832031 118.78125 20.191406 119.65625 22.726562 C 120.519531 25.261719 119.167969 28.015625 116.632812 28.890625 C 116.109375 29.070312 115.578125 29.15625 115.054688 29.15625 C 113.039062 29.15625 111.160156 27.882812 110.46875 25.867188 Z M 131.417969 27.710938 C 128.75 27.457031 126.78125 25.09375 127.035156 22.421875 C 127.292969 19.753906 129.644531 17.789062 132.316406 18.042969 C 134.988281 18.296875 136.953125 20.664062 136.699219 23.332031 C 136.46875 25.84375 134.355469 27.722656 131.878906 27.722656 C 131.722656 27.722656 131.578125 27.722656 131.417969 27.710938 Z M 283.15625 23.128906 C 282.960938 20.457031 284.976562 18.128906 287.648438 17.9375 C 290.320312 17.742188 292.648438 19.742188 292.84375 22.425781 C 293.050781 25.09375 291.035156 27.421875 288.363281 27.617188 C 288.242188 27.628906 288.121094 27.628906 288 27.628906 C 285.488281 27.628906 283.351562 25.6875 283.15625 23.128906 Z M 205.722656 19.199219 C 205.636719 19.039062 205.566406 18.894531 205.492188 18.738281 C 204.457031 17.414062 204.144531 15.582031 204.824219 13.910156 C 205.828125 11.433594 208.671875 10.246094 211.148438 11.25 C 212.359375 11.75 213.273438 12.683594 213.757812 13.789062 C 213.902344 13.96875 214.035156 14.164062 214.15625 14.382812 C 215.480469 16.699219 214.679688 19.671875 212.347656 20.996094 C 211.582031 21.429688 210.757812 21.636719 209.945312 21.636719 C 208.257812 21.636719 206.617188 20.761719 205.71875 19.199219 Z M 205.722656 19.199219 " fill-opacity="1" fill-rule="nonzero"/><path stroke-linecap="butt" transform="matrix(0.748661, 0.000000000000003125, -0.000000000000003125, 0.748661, 24.613379, 105.740109)" fill="none" stroke-linejoin="miter" d="M -0.000130251 2.001136 L 6.808904 2.001136 " stroke="#d60000" stroke-width="4" stroke-opacity="1" stroke-miterlimit="4"/></svg>